<svg width="451" height="391" viewBox="0 0 451 391" fill="none" xmlns="http://www.w3.org/2000/svg">
<g id="undraw_empty_xct9 1" clip-path="url(#clip0)">
<path id="Vector" opacity="0.1" d="M158.203 383.427C201.652 383.427 236.874 376.035 236.874 366.915C236.874 357.795 201.652 350.402 158.203 350.402C114.755 350.402 79.5327 357.795 79.5327 366.915C79.5327 376.035 114.755 383.427 158.203 383.427Z" fill="#536DFE"/>
<path id="Vector_2" opacity="0.1" d="M262.034 55.1411C233.121 54.0324 205.584 43.6873 179.289 32.372C152.994 21.0568 126.949 8.52385 98.729 2.52964C80.578 -1.32626 59.8181 -1.87569 45.1964 8.89509C31.1197 19.2897 26.5719 37.1832 24.1282 53.7997C22.2876 66.3029 21.2065 79.4645 26.2457 91.1708C29.7482 99.2983 35.9578 106.129 40.2555 113.915C55.2078 141 44.638 174.402 28.4392 200.849C20.8447 213.253 12.0216 225.103 6.15593 238.294C0.290262 251.485 -2.42144 266.651 2.71158 280.144C7.79546 293.509 19.9155 303.527 33.0451 310.581C59.7109 324.91 91.1211 329.009 121.772 331.335C189.6 336.473 257.786 334.251 325.793 332.018C350.962 331.197 376.238 330.36 400.997 326.049C414.747 323.653 428.94 319.852 438.925 310.675C451.594 299.028 454.735 279.308 446.242 264.706C432 240.204 392.634 234.121 382.667 207.833C377.19 193.36 382.814 177.243 390.78 163.824C407.863 135.031 436.494 109.772 438 76.8658C439.036 54.265 425.272 31.6295 403.99 20.933C381.684 9.7217 350.747 11.1324 334.298 29.6892C317.345 48.7757 287.565 56.1261 262.034 55.1411Z" fill="#536DFE"/>
<path id="Vector_3" d="M239.059 179.054L225.375 168.832L232.277 157.448L196.136 154.255L183.149 165.382L166.892 155.285L153.334 157.091L153.173 153.132C153.005 149.003 152.631 144.889 152.052 140.807C152.11 139.569 152.15 138.148 152.146 136.604C152.146 130.095 151.35 121.468 147.857 115.716L148.661 107.707L142.139 99.1688C143.186 96.857 144.38 94.6306 145.713 92.5063C145.936 92.1499 146.159 91.8034 146.401 91.4669C154.866 90.7887 161.545 83.0769 161.545 73.6476C161.545 73.212 161.545 72.7764 161.5 72.3458C161.5 72.1725 161.469 71.9943 161.451 71.8211C162.278 72.3161 163.113 72.811 163.948 73.306C164.105 73.5535 164.284 73.801 164.48 74.093L164.52 74.1475L164.77 74.489L164.851 74.593C164.94 74.7118 165.034 74.8256 165.128 74.9444L165.19 75.0236C165.427 75.3156 165.677 75.6126 165.945 75.9047C165.977 75.9334 166.007 75.9649 166.035 75.9987L166.37 76.3452L166.464 76.4393C166.75 76.7214 167.053 76.9936 167.357 77.251L167.455 77.3302L167.84 77.6223L167.965 77.7113C168.112 77.8103 168.264 77.9143 168.411 78.0083L168.465 78.043C168.639 78.1469 168.818 78.2459 168.997 78.34L169.086 78.3796C169.238 78.4522 169.387 78.5215 169.533 78.5875L169.671 78.6419C169.828 78.7013 169.979 78.7558 170.14 78.8053L170.239 78.835C170.435 78.8894 170.632 78.934 170.833 78.9686H170.855C171.044 79.0025 171.235 79.024 171.427 79.0329H171.556C171.728 79.0429 171.899 79.0429 172.07 79.0329H172.182C172.396 79.0193 172.609 78.9912 172.821 78.9488C173.82 78.8032 174.78 78.4217 175.635 77.8301C175.853 77.6688 176.046 77.47 176.207 77.2411C177.1 75.9443 176.118 74.5237 176.118 74.5237C175.769 73.603 173.509 72.9546 173.509 72.9546C173.509 72.9546 166.361 69.6481 166.361 67.0148C166.361 64.3815 164.574 50.7201 146.128 47.5967C146.128 47.5967 134.129 46.8493 130.756 53.9671L130.684 54.7987C129.693 55.4867 128.871 56.8677 127.892 57.2736C127.47 57.3742 127.062 57.5409 126.682 57.7686V57.6745C126.569 57.784 126.476 57.9168 126.409 58.0656C126.199 58.5289 126.073 59.0334 126.038 59.5505C125.938 60.1822 125.74 60.79 125.453 61.3473C125.373 61.5057 125.284 61.6578 125.185 61.8027V61.8027L125.109 61.9363C125.628 61.9811 126.148 61.8878 126.628 61.6641C126.552 62.3418 126.402 63.0067 126.181 63.644C126.465 63.6542 126.746 63.5737 126.99 63.4123C127.234 63.2508 127.431 63.0151 127.557 62.7332V62.6936L127.615 62.6045C127.728 62.3754 127.82 62.1351 127.892 61.8868L127.843 61.9462C127.932 61.6245 128.013 61.2978 128.111 60.981C128.156 60.8026 128.23 60.6348 128.33 60.486C128.449 60.3528 128.595 60.2525 128.756 60.1932C128.916 60.1339 129.087 60.1172 129.255 60.1445L129.072 64.436H129.152C129.044 64.7481 128.913 65.0495 128.759 65.3368C128.125 66.4753 126.972 67.2524 126.548 68.4998C126.365 69.1014 126.295 69.7381 126.342 70.3708C126.342 70.742 126.382 71.1182 126.409 71.4894V71.4597C126.472 72.4497 126.489 73.3902 126.007 74.1871C125.676 74.7316 125.145 75.1424 124.962 75.7611C124.911 75.9335 124.888 76.1145 124.895 76.2957C124.93 76.8381 125.033 77.3727 125.198 77.8846C125.2 77.8748 125.2 77.8647 125.198 77.8549C125.31 78.2315 125.336 78.6327 125.274 79.023C125.073 80.013 123.988 80.8396 124.041 81.785C124.038 81.9094 124.055 82.0333 124.09 82.1513C124.299 82.6131 124.661 82.9677 125.1 83.1413C125.789 83.5753 126.58 83.7685 127.37 83.6957C127.665 83.6364 127.952 83.5279 128.218 83.3739C127.906 84.1708 127.584 84.9579 127.258 85.7053C127.209 85.8241 127.155 85.9429 127.101 86.0617C127.101 86.0617 124.341 84.0174 122.773 88.1851C122.315 89.0512 121.987 89.9941 121.803 90.9768C121.725 91.3699 121.614 91.7543 121.473 92.1252C120.776 93.431 119.735 94.4678 118.488 95.0951C115.29 96.7186 102.37 114.573 102.142 119.196C102.03 121 101.755 122.788 101.32 124.532C100.303 128.638 100.042 132.928 100.552 137.149C100.711 138.513 100.976 139.859 101.343 141.173C102.714 145.791 103.63 154.409 103.63 154.409L105.113 169.367C105.058 171.431 105.139 173.498 105.354 175.549C103.84 177.465 97.7597 185.449 100.083 187.622C101.87 189.334 104.997 189.052 106.753 188.701C105.274 192.755 102.946 199.803 102.638 204.644C102.191 211.807 103.402 221.295 105.319 224.938C107.235 228.581 113.623 237.927 113.623 237.927C113.623 237.927 113.324 250.747 115.607 255.404C117.89 260.062 118.81 269.724 118.81 269.724C118.81 269.724 120.941 277.881 119.873 280.881C118.806 283.881 121.852 286.375 118.654 288.37C115.455 290.365 111.363 335.324 111.363 335.324C111.363 335.324 109.714 364.79 111.363 366.29C111.451 366.361 111.545 366.422 111.644 366.473V376.373C111.644 376.373 110.501 378.452 115.151 378.872C118.336 379.155 127.365 379.793 132.721 380.164L136.872 380.451C136.872 380.451 146.7 382.619 151.042 380.451C155.384 378.283 163.082 378.333 161.938 372.606C161.786 371.827 161.583 371.061 161.331 370.314C160.075 366.76 157.944 366.354 154.017 365.364C153.79 365.31 153.571 365.26 153.37 365.221C149.233 364.424 147.875 366.557 145.556 363.78C143.541 361.38 137.126 358.692 134.942 357.841C134.995 357.662 135.062 357.489 135.116 357.306C134.497 357.19 133.922 356.879 133.459 356.41L139.378 356.826L142.903 357.068C142.903 357.068 151.257 358.915 154.965 357.068C158.672 355.222 165.195 355.272 164.221 350.406C164.093 349.743 163.921 349.091 163.707 348.456C162.64 345.436 160.826 345.105 157.489 344.268C157.297 344.224 157.118 344.179 156.939 344.145C153.423 343.466 152.271 345.278 150.301 342.922C148.612 340.912 143.282 338.66 141.366 337.893C141.366 336.794 140.026 335.23 139.181 333.661C138.19 331.829 140.021 325.419 140.021 325.419L141.067 298.824C141.465 298.628 141.886 298.494 142.317 298.428C142.317 298.428 147.044 293.429 145.976 288.103C145.759 286.492 145.645 284.866 145.637 283.237C147.191 281.638 149.331 279.277 149.939 277.822C150.93 275.451 149.939 263.963 149.939 263.963V220.033L157.846 220.919L165.021 221.736L167.205 221.983L174.38 222.785L190.869 224.631L205.727 221.513L212.156 220.167L225.375 217.395V181.558L239.059 179.054ZM130.229 60.3029L129.308 60.194C129.612 60.2088 129.934 60.2732 130.229 60.3029Z" fill="url(#paint0_linear)"/>
<path id="Vector_4" d="M206.987 202.324C202.52 209.407 186.46 205.655 186.46 205.655L174.013 192.751L172.338 191.004L175.148 184.391C175.148 184.391 176.042 184.663 177.574 185.148C185.62 187.737 210.758 196.369 206.987 202.324Z" fill="#EFB7B9"/>
<path id="Vector_5" opacity="0.1" d="M177.565 185.148C177.015 187.266 175.51 190.439 174.013 192.751L172.338 191.004L175.148 184.391C175.148 184.391 176.051 184.663 177.565 185.148Z" fill="black"/>
<path id="Vector_6" d="M134.879 110.573C134.879 110.573 123.407 116.211 123.97 130.056C124.375 138.975 125.252 147.86 126.597 156.666C126.597 156.666 124.251 177.5 134.017 182.87C143.783 188.241 152.82 192.656 152.82 192.656C152.82 192.656 168.099 194.477 169.997 195.23C171.896 195.982 177.829 184.479 176.734 182.687C175.639 180.895 161.616 177.138 159.829 174.148C158.042 171.159 153.91 169.313 153.91 169.313C153.91 169.313 149.644 166.452 149.353 163.868C149.063 161.284 150.189 159.358 150.475 158.225C150.761 157.091 151.484 146.147 151.484 146.147C151.484 146.147 156.3 107.192 134.879 110.573Z" fill="#DCE6F2"/>
<path id="Vector_7" opacity="0.1" d="M142.451 156.098C142.451 156.098 126.713 159.018 128.236 165.121C128.236 165.121 133.95 158.533 142.451 156.098Z" fill="black"/>
<path id="Vector_8" opacity="0.1" d="M142.572 158.566C142.572 158.566 133.919 166.392 135.612 166.793C137.305 167.194 142.572 158.566 142.572 158.566Z" fill="black"/>
<path id="Vector_9" opacity="0.1" d="M146.731 161.295C146.731 161.295 144.413 166.557 145.838 166.2C147.263 165.844 146.731 161.295 146.731 161.295Z" fill="black"/>
<path id="Vector_10" opacity="0.1" d="M178.146 185.707L177.19 185.405C177.462 184.415 177.538 183.613 177.315 183.242C176.22 181.45 162.206 177.698 160.424 174.703C158.641 171.709 154.504 169.867 154.504 169.867C154.504 169.867 150.238 167.006 149.948 164.422C149.657 161.839 150.783 159.913 151.069 158.78C151.355 157.646 152.079 146.697 152.079 146.697C152.079 146.697 156.881 107.747 135.46 111.128C135.46 111.128 123.988 116.771 124.546 130.615C124.951 139.535 125.83 148.42 127.177 157.225C127.177 157.225 124.832 178.059 134.598 183.43C144.363 188.8 153.401 193.216 153.401 193.216C153.401 193.216 168.675 195.032 170.578 195.789C171.297 196.076 172.597 194.596 173.87 192.562L174.594 193.31L187.04 206.209C187.04 206.209 203.101 209.966 207.568 202.882C211.343 196.923 186.209 188.29 178.146 185.707Z" fill="black"/>
<path id="Vector_11" d="M128.276 58.6105C127.839 58.7052 127.42 58.8845 127.039 59.1401C126.592 59.5509 126.592 60.2538 126.48 60.8676C126.349 61.7214 126.044 62.5307 125.587 63.2336C126.095 63.2749 126.605 63.1816 127.075 62.9613C126.998 63.6388 126.848 64.3036 126.628 64.9413C126.906 64.9491 127.181 64.8678 127.418 64.7072C127.656 64.5465 127.847 64.3133 127.968 64.0354C128.204 63.4777 128.391 62.8958 128.526 62.2981C128.568 62.1193 128.641 61.9512 128.741 61.8031C129.152 61.2636 129.916 61.5061 130.55 61.5754C131.078 61.6247 131.608 61.5167 132.086 61.2626C132.563 61.0084 132.971 60.6174 133.266 60.13C133.941 58.9965 133.981 56.096 132.373 55.7891C130.693 55.4822 129.648 58.0462 128.276 58.6105Z" fill="#965D7B"/>
<g id="Group" opacity="0.1">
<path id="Vector_12" opacity="0.1" d="M126.994 59.7492C127.035 59.5067 127.061 59.2543 127.111 59.0117C126.686 59.4226 126.664 60.1205 126.552 60.7392C126.496 61.0962 126.408 61.4461 126.289 61.7836C126.64 61.1624 126.88 60.4715 126.994 59.7492V59.7492Z" fill="black"/>
<path id="Vector_13" opacity="0.1" d="M127.137 63.8373C127.36 63.2005 127.51 62.5354 127.584 61.8574C127.137 62.066 126.652 62.1591 126.168 62.1297C126.027 62.4778 125.855 62.8094 125.654 63.1196C126.161 63.1631 126.669 63.0714 127.137 62.8523C127.063 63.5303 126.913 64.1954 126.69 64.8323C126.969 64.8395 127.243 64.7579 127.481 64.5974C127.718 64.4368 127.909 64.2039 128.031 63.9264C128.142 63.7015 128.232 63.4642 128.299 63.2186C128.168 63.4216 127.993 63.5847 127.79 63.6928C127.586 63.801 127.362 63.8507 127.137 63.8373V63.8373Z" fill="black"/>
<path id="Vector_14" opacity="0.1" d="M131.059 60.4725C130.425 60.4032 129.657 60.1606 129.246 60.7002C129.148 60.8495 129.075 61.0172 129.031 61.1951C128.991 61.3238 128.955 61.4575 128.924 61.5911C129.348 61.2199 130.036 61.4179 130.613 61.4822C131.141 61.53 131.67 61.4213 132.148 61.1673C132.625 60.9133 133.033 60.5231 133.329 60.0369C133.464 59.7965 133.565 59.5344 133.628 59.2598C133.322 59.6793 132.928 60.0093 132.48 60.2207C132.032 60.4322 131.545 60.5186 131.059 60.4725Z" fill="black"/>
</g>
<path id="Vector_15" d="M141.723 99.4902L148.536 108.568L147.647 117.73L139.414 103.45L141.723 99.4902Z" fill="#DCE6F2"/>
<path id="Vector_16" opacity="0.1" d="M148.531 108.568L147.696 117.186L147.642 117.73L140.213 104.841L139.414 103.45L139.646 103.049L141.719 99.4902L142.179 100.104L148.531 108.568Z" fill="black"/>
<path id="Vector_17" d="M152.07 87.2011C149.764 87.9336 147.562 90.4481 145.645 93.5022C144.35 95.6093 143.192 97.8159 142.179 100.105C141.549 101.501 140.995 102.842 140.535 104.011L140.213 104.842C139.436 106.877 139.002 108.238 139.002 108.238C139.002 108.238 121.356 93.5368 124.148 92.5469C125.087 92.2152 126.32 89.9878 127.539 87.1813L127.691 86.8249C128.464 85.0231 129.223 83.0135 129.898 81.1227C131.278 77.2371 132.301 73.8613 132.301 73.8613C132.301 73.8613 159.106 84.9736 152.07 87.2011Z" fill="#EFB7B9"/>
<path id="Vector_18" d="M162.626 73.0332C162.626 73.0332 166.7 81.2004 172.173 80.0867C177.645 78.973 175.394 75.7012 175.394 75.7012L162.626 73.0332Z" fill="#444053"/>
<path id="Vector_19" d="M154.732 355.743C151.123 357.57 142.961 355.743 142.961 355.743L139.521 355.506C135.054 355.189 127.575 354.654 124.93 354.417C121.071 354.065 122.018 352.313 122.018 352.313V341.725L140.745 336.469C140.745 336.469 148.147 339.275 150.176 341.725C152.101 344.062 153.227 342.265 156.662 342.938C156.832 342.973 157.011 343.012 157.198 343.062C160.46 343.889 162.229 344.215 163.274 347.21C163.484 347.839 163.653 348.484 163.779 349.14C164.744 353.961 158.337 353.927 154.732 355.743Z" fill="#A36468"/>
<path id="Vector_20" opacity="0.1" d="M163.274 347.209C162.603 347.674 161.897 348.074 161.165 348.407C158.708 349.649 156.372 351.164 153.888 352.337C151.404 353.51 148.728 354.347 146.039 354.124C144.632 354.01 143.193 353.629 141.848 354.075C141.017 354.43 140.234 354.912 139.521 355.505C135.053 355.188 127.575 354.654 124.93 354.416C121.071 354.065 122.018 352.312 122.018 352.312V351.075C122.156 351.075 122.313 351.03 122.491 351.016C123.416 350.999 124.336 351.151 125.216 351.466C127.155 352.05 129.085 352.624 131.024 353.198C131.183 352.532 131.464 351.908 131.848 351.365C132.232 350.822 132.711 350.371 133.258 350.04C134.364 349.39 135.606 349.074 136.858 349.125C139.865 349.169 142.711 350.748 145.713 350.907C146.552 350.992 147.397 350.835 148.165 350.451C148.576 350.224 148.938 349.892 149.34 349.64C149.984 349.295 150.663 349.04 151.364 348.882C153.333 348.339 155.265 347.648 157.149 346.813C157.685 346.581 158.311 346.16 158.239 345.526C158.145 344.685 156.953 344.586 156.64 343.814C156.585 343.674 156.559 343.523 156.565 343.371C156.572 343.219 156.609 343.071 156.676 342.938C156.845 342.972 157.024 343.012 157.212 343.061C160.459 343.888 162.229 344.215 163.274 347.209Z" fill="black"/>
<path id="Vector_21" d="M150.917 378.908C146.673 381.056 137.068 378.908 137.068 378.908L133.025 378.645C127.79 378.274 118.971 377.655 115.857 377.363C111.314 376.948 112.431 374.888 112.431 374.888V362.41L134.468 356.223C134.468 356.223 143.18 359.524 145.565 362.41C147.83 365.157 149.139 363.044 153.2 363.835C153.401 363.875 153.611 363.925 153.83 363.979C157.667 364.969 159.749 365.34 160.978 368.864C161.226 369.604 161.425 370.364 161.572 371.136C162.68 376.809 155.161 376.764 150.917 378.908Z" fill="#A36468"/>
<path id="Vector_22" opacity="0.1" d="M160.969 368.866C160.179 369.412 159.35 369.884 158.489 370.276C155.599 371.736 152.847 373.518 149.925 374.899C147.004 376.28 143.854 377.26 140.687 377.003C139.034 376.869 137.341 376.409 135.773 376.944C134.79 377.368 133.866 377.941 133.025 378.646C127.79 378.275 118.971 377.656 115.857 377.364C111.314 376.949 112.431 374.889 112.431 374.889V373.434C112.616 373.401 112.802 373.378 112.989 373.365C114.077 373.343 115.161 373.522 116.197 373.895L123.027 375.934C123.218 375.147 123.551 374.412 124.006 373.773C124.462 373.134 125.03 372.604 125.676 372.217C126.979 371.448 128.442 371.075 129.916 371.138C133.454 371.192 136.8 373.048 140.334 373.236C141.318 373.336 142.309 373.153 143.211 372.707C143.698 372.434 144.104 372.043 144.596 371.751C145.351 371.341 146.152 371.042 146.977 370.86C149.281 370.216 151.543 369.403 153.749 368.425C154.379 368.148 155.117 367.653 155.032 366.91C154.92 365.92 153.517 365.802 153.146 364.891C153.084 364.727 153.055 364.549 153.063 364.37C153.071 364.192 153.115 364.018 153.191 363.861C153.392 363.901 153.602 363.95 153.821 364.005C157.658 364.955 159.74 365.341 160.969 368.866Z" fill="black"/>
<path id="Vector_23" d="M141.312 293.281L140.119 324.381C140.119 324.381 138.332 330.731 139.302 332.548C140.271 334.365 141.906 336.176 141.312 337.25C140.718 338.324 133.57 349.937 131.261 345.482C128.951 341.027 126.673 321.723 126.673 321.723L128.804 297.88L141.312 293.281Z" fill="#444053"/>
<path id="Vector_24" d="M146.486 215.797L149.8 220.707V263.414C149.8 263.414 150.77 274.799 149.8 277.15C148.831 279.501 143.917 284.203 143.917 284.203L139.784 260.692L140.678 235.819L146.486 215.797Z" fill="#444053"/>
<path id="Vector_25" opacity="0.1" d="M141.312 293.281L140.119 324.381C140.119 324.381 138.332 330.731 139.302 332.548C140.271 334.365 141.906 336.176 141.312 337.25C140.718 338.324 133.57 349.937 131.261 345.482C128.951 341.027 126.673 321.723 126.673 321.723L128.804 297.88L141.312 293.281Z" fill="black"/>
<path id="Vector_26" opacity="0.1" d="M146.486 215.797L149.8 220.707V263.414C149.8 263.414 150.77 274.799 149.8 277.15C148.831 279.501 143.917 284.203 143.917 284.203L139.784 260.692L140.678 235.819L146.486 215.797Z" fill="black"/>
<path id="Vector_27" d="M149.8 197.581V220.681L146.079 238.664C146.079 238.664 144.886 282.059 145.927 287.336C146.968 292.612 142.353 297.567 142.353 297.567C142.353 297.567 139.673 297.898 139.673 300.205C139.673 302.512 135.205 309.115 135.205 309.115L135.353 321.984C135.353 321.984 137.292 346.075 134.312 350.693C131.332 355.311 135.353 355.974 135.353 355.974C131.632 369.502 113.762 366.369 112.149 364.884C110.537 363.399 112.149 334.195 112.149 334.195C112.149 334.195 116.143 289.647 119.27 287.667C122.397 285.687 119.422 283.212 120.463 280.242C121.504 277.273 119.422 269.19 119.422 269.19C119.422 269.19 118.529 259.617 116.295 254.998C114.061 250.38 114.356 237.674 114.356 237.674C114.356 237.674 108.102 228.433 106.243 224.805C104.385 221.176 103.188 211.772 103.634 204.674C103.938 199.877 106.212 192.893 107.655 188.874C108.348 186.949 108.848 185.701 108.848 185.701L109.272 185.825L133.673 192.903L149.8 197.581Z" fill="#444053"/>
<path id="Vector_28" opacity="0.1" d="M152.07 87.2005C149.764 87.9331 147.562 90.4476 145.646 93.5016H145.145C142.336 93.5038 139.576 92.6844 137.144 91.126C134.713 89.5677 132.695 87.3257 131.296 84.6266C130.712 83.5083 130.241 82.3213 129.894 81.0875C131.274 77.2019 132.297 73.8262 132.297 73.8262C132.297 73.8262 159.106 84.9731 152.07 87.2005Z" fill="black"/>
<path id="Vector_29" d="M161.116 74.8261C161.12 77.5344 160.563 80.2076 159.487 82.6398C158.412 85.0719 156.847 87.1981 154.913 88.8546C152.979 90.5111 150.728 91.6536 148.333 92.1942C145.938 92.7348 143.463 92.659 141.098 91.9727C138.733 91.2864 136.543 90.0078 134.694 88.2355C132.846 86.4633 131.389 84.2446 130.437 81.7503C129.484 79.2561 129.061 76.5528 129.2 73.8489C129.339 71.1449 130.036 68.5124 131.238 66.154C131.722 65.1958 132.288 64.2908 132.927 63.4514C133.98 62.0608 135.219 60.8558 136.599 59.8777C138.931 58.2359 141.607 57.2924 144.366 57.1393C147.126 56.9863 149.874 57.6289 152.342 59.0044C154.81 60.38 156.914 62.4413 158.448 64.9872C159.982 67.533 160.893 70.4762 161.094 73.5292C161.103 73.9648 161.116 74.3954 161.116 74.8261Z" fill="#EFB7B9"/>
<path id="Vector_30" opacity="0.1" d="M147.696 117.186L147.642 117.731L140.213 104.861C139.436 106.896 139.002 108.257 139.002 108.257C139.002 108.257 121.356 93.5362 124.148 92.5462C125.087 92.2146 126.32 89.9871 127.539 87.1806L127.691 86.8242C128.987 91.1009 136.514 99.6492 139.646 103.074C140.008 103.47 140.307 103.797 140.539 104.035L141.017 104.53L141.267 104.807C142.407 106.109 147.213 111.85 147.696 117.186Z" fill="black"/>
<path id="Vector_31" d="M153.249 160.855L152.436 189.846L152.293 195.008C152.293 195.008 142.661 194.018 133.673 192.929C126.436 192.053 119.614 191.108 118.564 190.554C117.224 189.856 114.351 189.316 112.086 188.975C110.335 188.712 108.959 188.574 108.959 188.574C108.959 188.574 108.446 188.742 107.655 188.9C105.93 189.247 102.902 189.529 101.137 187.831C98.8809 185.658 104.809 177.763 106.288 175.868L106.614 175.457L106.055 169.74L104.604 154.915C104.604 154.915 103.71 146.377 102.37 141.798C102.012 140.496 101.753 139.163 101.597 137.813C101.099 133.632 101.354 129.382 102.348 125.31C102.772 123.58 103.041 121.808 103.152 120.019C103.375 115.44 115.995 97.7447 119.123 96.136C120.529 95.4092 121.661 94.1585 122.321 92.6019C122.539 92.1124 122.703 91.5955 122.808 91.0625C124.148 84.6277 127.539 87.1818 127.539 87.1818C128.357 92.2158 141.013 105.541 141.013 105.541L141.263 105.818C142.518 107.243 148.111 113.936 147.714 119.648C147.634 121.774 147.921 123.897 148.558 125.904C151.132 134.885 152.612 144.208 152.959 153.623L153.249 160.855Z" fill="#DCE6F2"/>
<path id="Vector_32" opacity="0.1" d="M135.317 126.428C135.317 126.428 132.19 134.842 129.845 136.204C127.499 137.565 136.434 139.074 135.317 126.428Z" fill="black"/>
<path id="Vector_33" opacity="0.1" d="M137.662 142.145C137.662 142.145 130.515 143.134 130.515 144.619C130.515 146.104 137.662 142.145 137.662 142.145Z" fill="black"/>
<path id="Vector_34" opacity="0.1" d="M145.145 151.795C145.145 151.795 134.758 176.296 131.855 177.039C128.951 177.781 145.145 151.795 145.145 151.795Z" fill="black"/>
<path id="Vector_35" opacity="0.1" d="M140.816 106.781L132.225 110.919L121.857 93.5648C122.075 93.0753 122.238 92.5584 122.344 92.0254C123.684 85.5906 127.075 88.1447 127.075 88.1447C127.892 93.1787 140.548 106.504 140.548 106.504L140.816 106.781Z" fill="black"/>
<path id="Vector_36" d="M141.263 105.792L132.672 109.93L122.303 92.5765C122.521 92.087 122.685 91.5701 122.79 91.0371C124.131 84.6023 127.521 87.1564 127.521 87.1564C128.339 92.1904 140.995 105.515 140.995 105.515L141.263 105.792Z" fill="#DCE6F2"/>
<path id="Vector_37" opacity="0.1" d="M152.293 195.008C152.293 195.008 142.661 194.018 133.673 192.929L149.8 197.606V203.051C149.094 203.759 148.482 204.125 148.085 203.937C146.226 203.071 131.06 200.349 131.06 200.349C131.06 200.349 122.25 195.399 112.743 189.459C112.513 189.317 112.289 189.162 112.073 188.994C110.965 188.16 110.01 187.1 109.259 185.87C107.503 183.054 106.645 179.436 106.275 175.887C106.066 173.853 105.988 171.805 106.042 169.759C106.088 167.439 106.279 165.125 106.614 162.834C105.695 153.961 105.247 145.036 105.274 136.105C105.386 122.246 117.112 117.296 117.112 117.296C138.668 115.192 131.984 153.801 131.984 153.801C131.984 153.801 130.738 164.69 130.398 165.804C130.059 166.918 128.839 168.774 129.005 171.372C129.17 173.971 133.289 177.08 133.289 177.08C133.289 177.08 137.309 179.168 138.967 182.262C140.173 184.544 148.009 187.638 152.436 189.845L152.293 195.008Z" fill="black"/>
<path id="Vector_38" opacity="0.1" d="M159.512 63.8379C159.52 64.6532 159.368 65.4607 159.065 66.2039C158.836 66.8105 158.571 67.3992 158.27 67.9661C157.8 69.0089 157.133 69.9273 156.314 70.6588C155.282 71.4755 153.977 71.7032 152.74 72.0348C151.502 72.3665 150.216 72.8961 149.51 74.0642C149.127 74.8152 148.871 75.6371 148.755 76.4896C148.636 77.3415 148.329 78.1476 147.861 78.8358C147.617 79.1719 147.28 79.4087 146.901 79.509C146.523 79.6094 146.125 79.5676 145.77 79.3902C145.397 79.1111 145.114 78.707 144.962 78.2369C144.453 76.9648 144.323 75.5541 144.118 74.183C143.912 72.8119 143.622 71.4012 142.862 70.2974C142.103 69.1936 140.758 68.466 139.565 68.8966C139.166 69.0669 138.802 69.3248 138.495 69.6548C138.188 69.9849 137.944 70.3802 137.778 70.8172C137.448 71.6919 137.222 72.6103 137.104 73.5495C136.55 76.9087 135.896 80.2482 135.143 83.5679C135.12 83.7039 135.069 83.8325 134.995 83.944C134.876 84.0752 134.716 84.1498 134.548 84.1519C133.548 84.3004 132.587 83.5233 131.578 83.6075C131.474 83.6151 131.37 83.6334 131.269 83.6619C129.637 80.5186 128.916 76.8952 129.205 73.2828C129.493 69.6704 130.777 66.2436 132.882 63.4667L132.963 63.442C133.634 63.1778 134.244 62.7518 134.749 62.1946C135.394 61.4796 135.992 60.7136 136.536 59.9029L136.894 59.4079C137.921 58.0372 139.09 56.8061 140.378 55.7401C140.73 55.4209 141.133 55.179 141.567 55.0273C141.938 54.9472 142.318 54.9339 142.692 54.9877C144.235 55.1929 145.791 55.2575 147.343 55.1807C148.425 54.9923 149.515 54.8701 150.609 54.8145C153.437 54.9035 155.849 57.1161 157.636 59.5415C158.596 60.7839 159.454 62.2144 159.512 63.8379Z" fill="black"/>
<path id="Vector_39" d="M129.152 66.6243C128.531 67.7529 127.41 68.5201 126.99 69.7576C126.373 71.5544 127.414 73.7917 126.458 75.3954C126.141 75.9349 125.618 76.3359 125.44 76.9546C125.136 77.999 125.967 79.1127 125.752 80.1868C125.538 81.2609 124.26 82.1667 124.6 83.2161C124.8 83.6737 125.152 84.0282 125.583 84.206C126.26 84.6363 127.039 84.8279 127.816 84.7555C129.036 84.5327 129.943 83.2062 131.18 83.1072C132.185 83.028 133.146 83.8002 134.147 83.6566C134.314 83.6502 134.474 83.5742 134.593 83.4438C134.669 83.3335 134.72 83.2044 134.741 83.0676C135.491 79.7512 136.146 76.4118 136.706 73.0492C136.82 72.1098 137.046 71.1911 137.376 70.3169C137.544 69.8808 137.788 69.4863 138.095 69.1564C138.402 68.8266 138.765 68.5682 139.163 68.3964C140.356 67.9707 141.696 68.6934 142.46 69.7972C143.224 70.901 143.515 72.3117 143.72 73.6828C143.926 75.0539 144.055 76.4646 144.56 77.7367C144.713 78.2085 144.998 78.6141 145.373 78.8949C146.043 79.3255 146.946 78.984 147.459 78.3405C147.93 77.652 148.237 76.8436 148.353 75.9894C148.469 75.1384 148.725 74.3181 149.108 73.5689C149.814 72.4008 151.105 71.8711 152.338 71.5395C153.571 71.2079 154.871 70.9752 155.912 70.1585C156.73 69.4278 157.397 68.5113 157.868 67.4708C158.53 66.1937 159.146 64.8078 159.092 63.3377C159.034 61.7339 158.177 60.3034 157.261 59.0561C155.474 56.6307 153.057 54.4181 150.229 54.334C149.135 54.3847 148.045 54.507 146.963 54.7003C145.411 54.7776 143.855 54.7114 142.313 54.5023C141.938 54.4526 141.558 54.4676 141.187 54.5468C140.753 54.6937 140.351 54.9361 140.003 55.2596C138.714 56.3238 137.543 57.5533 136.514 58.9225C135.851 59.8968 135.132 60.8227 134.361 61.6943C133.856 62.2524 133.246 62.68 132.574 62.9466C132.127 63.0852 131.681 62.9862 131.256 63.1397C129.938 63.6 129.764 65.5057 129.152 66.6243Z" fill="#965D7B"/>
<path id="Vector_40" opacity="0.1" d="M172.173 80.0817C168.599 80.8093 165.637 77.6068 163.997 75.2705C163.494 74.561 163.036 73.8134 162.626 73.0332L174.893 75.5972L175.389 75.7011C175.389 75.7011 177.645 78.973 172.173 80.0817Z" fill="black"/>
<g id="Group_2" opacity="0.1">
<path id="Vector_41" opacity="0.1" d="M125.753 78.7718C125.803 78.1245 125.714 77.4732 125.493 76.8711C125.493 76.9206 125.453 76.9701 125.44 77.0196C125.248 77.6829 125.507 78.3709 125.672 79.0589C125.708 78.9665 125.735 78.8703 125.753 78.7718V78.7718Z" fill="black"/>
<path id="Vector_42" opacity="0.1" d="M126.816 70.668C126.77 71.3524 126.782 72.0401 126.851 72.7221C126.897 72.0377 126.885 71.35 126.816 70.668Z" fill="black"/>
<path id="Vector_43" opacity="0.1" d="M157.842 66.0403C157.371 67.0831 156.704 68.0015 155.885 68.733C154.853 69.5497 153.553 69.7774 152.311 70.109C151.069 70.4407 149.787 70.9703 149.081 72.1384C148.699 72.8897 148.443 73.7115 148.326 74.5639C148.21 75.4178 147.903 76.226 147.433 76.915C146.919 77.5585 146.016 77.905 145.346 77.4694C144.971 77.1885 144.687 76.7829 144.533 76.3111C144.028 75.039 143.894 73.6333 143.693 72.2572C143.492 70.8812 143.193 69.4755 142.434 68.3716C141.674 67.2678 140.329 66.5402 139.137 66.9708C138.738 67.1419 138.374 67.4 138.067 67.73C137.76 68.0599 137.516 68.4549 137.35 68.8914C137.019 69.7656 136.794 70.6842 136.68 71.6237C136.123 74.9862 135.467 78.3257 134.714 81.6421C134.693 81.7789 134.642 81.9079 134.567 82.0183C134.447 82.1487 134.288 82.2246 134.12 82.2311C133.119 82.3747 132.159 81.6025 131.153 81.6817C129.916 81.7807 129.009 83.1072 127.79 83.325C127.012 83.4023 126.231 83.2104 125.556 82.7756C125.245 82.6276 124.967 82.4082 124.738 82.1321C124.634 82.298 124.565 82.4879 124.536 82.6877C124.507 82.8875 124.52 83.0918 124.573 83.2854C124.77 83.7462 125.123 84.1021 125.556 84.2754C126.231 84.7101 127.012 84.9021 127.79 84.8248C129.009 84.607 129.916 83.2805 131.153 83.1815C132.159 83.1023 133.119 83.8744 134.12 83.7309C134.288 83.7244 134.447 83.6485 134.567 83.5181C134.642 83.4077 134.693 83.2786 134.714 83.1419C135.464 79.842 136.12 76.5025 136.68 73.1235C136.794 72.184 137.019 71.2654 137.35 70.3912C137.516 69.9547 137.76 69.5597 138.067 69.2298C138.374 68.8998 138.738 68.6417 139.137 68.4706C140.329 68.04 141.67 68.7676 142.434 69.8714C143.198 70.9752 143.488 72.3859 143.693 73.757C143.899 75.1281 144.028 76.5388 144.533 77.8109C144.687 78.2827 144.971 78.6883 145.346 78.9692C146.016 79.3998 146.919 79.0583 147.433 78.4148C147.903 77.7258 148.21 76.9176 148.326 76.0636C148.443 75.2113 148.699 74.3895 149.081 73.6382C149.787 72.4701 151.078 71.9454 152.311 71.6088C153.544 71.2722 154.844 71.0495 155.885 70.2328C156.704 69.5013 157.371 68.5829 157.842 67.5401C158.503 66.268 159.119 64.882 159.066 63.4119C159.057 63.2229 159.039 63.0346 159.012 62.8477C158.797 63.9806 158.4 65.0617 157.842 66.0403V66.0403Z" fill="black"/>
</g>
<path id="Vector_44" opacity="0.1" d="M159.083 66.1885C160.229 68.4454 160.908 70.956 161.071 73.539C157.091 71.0641 153.347 68.3466 151.458 67.4012C148.165 65.7529 135.853 66.0004 131.225 66.1539C131.709 65.1956 132.274 64.2907 132.914 63.4513C133.971 62.0595 135.214 60.8544 136.599 59.8775C138.434 58.5875 140.486 57.7256 142.632 57.3444C144.777 56.9633 146.97 57.0709 149.077 57.6606C151.183 58.2504 153.159 59.3099 154.883 60.7745C156.608 62.2391 158.045 64.0779 159.106 66.1786L159.083 66.1885Z" fill="black"/>
<path id="Vector_45" opacity="0.1" d="M173.29 77.983C171.141 78.7156 167.634 77.2999 163.997 75.2705C163.494 74.561 163.036 73.8134 162.626 73.0332L174.893 75.5972C175.706 76.211 175.912 77.0871 173.29 77.983Z" fill="black"/>
<path id="Vector_46" d="M146.097 49.0283C146.097 49.0283 134.37 48.2858 131.073 55.3393L130.541 61.5909L129.648 61.482L129.469 65.7339C129.469 65.7339 147.392 64.8677 151.471 66.907C155.55 68.9463 168.224 79.2221 173.303 77.4897C178.383 75.7573 172.856 74.1486 172.856 74.1486C172.856 74.1486 165.865 70.8669 165.865 68.293C165.865 65.7191 164.132 52.1219 146.097 49.0283Z" fill="#444053"/>
<path id="Vector_47" opacity="0.1" d="M123.479 280.777C123.479 280.777 130.961 288.821 134.2 288.202C134.2 288.202 125.042 287.336 123.479 280.777Z" fill="black"/>
<path id="Vector_48" opacity="0.1" d="M121.915 284.506C121.915 284.506 122.585 288.644 124.372 288.238C126.159 287.832 121.915 284.506 121.915 284.506Z" fill="black"/>
<path id="Vector_49" opacity="0.1" d="M133.642 353.664C133.642 353.664 123.018 362.821 124.81 363.069C126.601 363.316 133.642 353.664 133.642 353.664Z" fill="black"/>
<path id="Vector_50" d="M147.853 171.921L182.251 165.719V201.803L149.568 199.907L147.853 171.921Z" fill="#536DFE"/>
<path id="Vector_51" opacity="0.05" d="M147.853 171.921L182.251 165.719V201.803L149.568 199.907L147.853 171.921Z" fill="black"/>
<path id="Vector_52" d="M182.251 165.719L223.503 169.139L221.22 200.541L182.251 201.803V165.719Z" fill="#536DFE"/>
<path id="Vector_53" opacity="0.1" d="M182.251 165.719L223.503 169.139L221.22 200.541L182.251 201.803V165.719Z" fill="black"/>
<path id="Vector_54" d="M194.934 154.705L182.251 165.718L223.503 169.139L230.244 157.868L194.934 154.705Z" fill="#536DFE"/>
<path id="Vector_55" d="M135.397 159.894L166.365 155.717L182.251 165.72L147.853 171.922L135.397 159.894Z" fill="#536DFE"/>
<path id="Vector_56" d="M189.792 175.09V224.424L173.678 222.593L166.669 221.801L164.534 221.554L157.529 220.757L147.853 219.658V171.922L182.247 174.516L189.792 175.09Z" fill="#536DFE"/>
<path id="Vector_57" d="M223.503 169.139V217.251L210.588 219.998L204.307 221.334L189.792 224.423V175.088L223.503 169.139Z" fill="#536DFE"/>
<path id="Vector_58" opacity="0.05" d="M223.503 169.139V217.251L210.588 219.998L204.307 221.334L189.792 224.423V175.088L223.503 169.139Z" fill="black"/>
<path id="Vector_59" d="M135.397 182.307L147.853 171.922L189.792 175.09L183.618 186.613L135.397 182.307Z" fill="#536DFE"/>
<path id="Vector_60" opacity="0.1" d="M135.397 182.307L147.853 171.922L189.792 175.09L183.618 186.613L135.397 182.307Z" fill="white"/>
<path id="Vector_61" d="M223.503 169.139L189.792 175.088L200.764 185.978L236.874 179.266L223.503 169.139Z" fill="#536DFE"/>
<path id="Vector_62" opacity="0.1" d="M223.503 169.139L189.792 175.088L200.764 185.978L236.874 179.266L223.503 169.139Z" fill="white"/>
<path id="Vector_63" opacity="0.1" d="M210.588 220L204.307 221.336V211.055L210.19 209.412L210.588 220Z" fill="white"/>
<path id="Vector_64" opacity="0.1" d="M173.678 215.791V222.592L166.669 221.8V215.791H173.678Z" fill="white"/>
<path id="Vector_65" opacity="0.1" d="M164.534 217.936V221.554L157.529 220.757V217.936H164.534Z" fill="white"/>
<path id="Vector_66" opacity="0.1" d="M185.575 212.184C180.773 218.99 164.913 214.288 164.913 214.288L153.128 200.666L151.529 198.82L154.656 192.385C154.656 192.385 155.55 192.711 157.042 193.286C164.94 196.345 189.618 206.457 185.575 212.184Z" fill="black"/>
<path id="Vector_67" d="M185.128 211.194C180.326 218 164.467 213.297 164.467 213.297L152.682 199.676L151.083 197.829L154.21 191.395C154.21 191.395 155.103 191.721 156.595 192.295C164.494 195.354 189.171 205.467 185.128 211.194Z" fill="#EFB7B9"/>
<path id="Vector_68" opacity="0.1" d="M156.577 192.295C155.925 194.374 154.268 197.453 152.664 199.676L151.064 197.829L154.192 191.395C154.192 191.395 155.09 191.721 156.577 192.295Z" fill="black"/>
<path id="Vector_69" d="M117.559 115.315C117.559 115.315 105.832 120.265 105.721 134.125C105.694 143.056 106.141 151.981 107.061 160.854C107.061 160.854 103.71 181.519 113.203 187.459C122.697 193.398 131.52 198.348 131.52 198.348C131.52 198.348 146.686 201.071 148.549 201.937C150.412 202.803 156.886 191.666 155.88 189.81C154.875 187.954 141.067 183.375 139.427 180.282C137.787 177.188 133.749 175.104 133.749 175.104C133.749 175.104 129.63 171.991 129.465 169.392C129.299 166.793 130.515 164.937 130.859 163.823C131.203 162.71 132.449 151.82 132.449 151.82C132.449 151.82 139.114 113.187 117.559 115.315Z" fill="#DCE6F2"/>
<path id="Vector_70" opacity="0.1" d="M122.92 161.201C122.92 161.201 107.061 163.181 108.289 169.368C108.289 169.368 114.316 163.127 122.92 161.201Z" fill="black"/>
<path id="Vector_71" opacity="0.1" d="M122.92 163.676C122.92 163.676 113.918 170.977 115.571 171.472C117.224 171.967 122.92 163.676 122.92 163.676Z" fill="black"/>
<path id="Vector_72" opacity="0.1" d="M126.941 166.645C126.941 166.645 124.372 171.763 125.824 171.495C127.276 171.228 126.941 166.645 126.941 166.645Z" fill="black"/>
<path id="Vector_73" d="M292.064 55.6318C292.064 55.6318 275.088 54.4983 277.072 67.6945C277.072 67.6945 276.674 70.0258 278.582 71.0851C278.582 71.0851 278.613 70.0951 280.324 70.4366C280.933 70.5503 281.552 70.5835 282.169 70.5356C283.004 70.4739 283.798 70.1105 284.429 69.5011V69.5011C284.429 69.5011 289.205 67.3183 291.063 58.666C291.063 58.666 292.439 56.7752 292.404 56.2901L289.536 57.6513C289.536 57.6513 290.514 59.9431 289.741 61.8487C289.741 61.8487 289.652 57.7355 289.098 57.8295C288.986 57.8295 287.61 58.6264 287.61 58.6264C287.61 58.6264 289.294 62.616 288.021 65.5215C288.021 65.5215 288.504 60.6014 287.083 58.9135L285.064 60.2203C285.064 60.2203 287.034 64.3434 285.698 67.7093C285.698 67.7093 286.042 62.5467 284.639 60.537L282.808 62.116C282.808 62.116 284.662 66.1848 283.531 68.9765C283.531 68.9765 283.384 62.9674 282.41 62.512C282.41 62.512 280.811 64.0761 280.57 64.7196C280.57 64.7196 281.834 67.6895 281.048 69.2289C281.048 69.2289 280.565 65.2245 280.154 65.2047C280.154 65.2047 278.559 67.8578 278.394 69.6595C278.471 67.9798 278.944 66.3518 279.765 64.9374C278.846 65.1301 277.998 65.6171 277.326 66.3382C277.326 66.3382 277.572 64.4622 280.159 64.2989C280.159 64.2989 281.499 62.2843 281.829 62.1606C281.829 62.1606 279.256 61.923 277.697 62.6902C277.697 62.6902 279.069 60.9231 282.303 61.7002L284.09 60.0668C284.09 60.0668 280.704 59.5718 279.265 60.1213C279.265 60.1213 280.918 58.5571 284.577 59.6956L286.542 58.3938C286.542 58.3938 283.657 57.7008 281.937 57.9532C281.937 57.9532 283.75 56.8692 287.119 58.0423L288.526 57.3444C288.526 57.3444 286.408 56.8841 285.792 56.8098C285.175 56.7356 285.14 56.5475 285.14 56.5475C286.479 56.3005 287.855 56.4719 289.111 57.0425C289.111 57.0425 292.127 55.8397 292.064 55.6318Z" fill="#536DFE"/>
<path id="Vector_74" opacity="0.1" d="M343.644 121.632C343.644 121.632 326.668 120.498 328.652 133.694C328.652 133.694 328.254 136.026 330.162 137.085C330.162 137.085 330.193 136.095 331.909 136.437C332.518 136.55 333.137 136.583 333.754 136.536C334.579 136.469 335.363 136.108 335.987 135.506V135.506C335.987 135.506 340.767 133.318 342.626 124.666C342.626 124.666 343.997 122.78 343.944 122.295L341.076 123.651C341.076 123.651 342.054 125.943 341.286 127.849C341.286 127.849 341.192 123.735 340.642 123.829C340.531 123.829 339.15 124.626 339.15 124.626C339.15 124.626 340.839 128.621 339.566 131.521C339.566 131.521 340.048 126.601 338.623 124.914L336.626 126.205C336.626 126.205 338.596 130.329 337.261 133.694C337.261 133.694 337.605 128.532 336.202 126.522L334.375 128.106C334.375 128.106 336.224 132.17 335.098 134.962C335.098 134.962 334.951 128.953 333.977 128.497C333.977 128.497 332.378 130.061 332.132 130.705C332.132 130.705 333.401 133.675 332.614 135.214C332.614 135.214 332.132 131.21 331.721 131.19C331.721 131.19 330.126 133.843 329.961 135.645C330.041 133.965 330.515 132.337 331.337 130.923C330.416 131.116 329.567 131.603 328.893 132.323C328.893 132.323 329.143 130.447 331.73 130.284C331.73 130.284 333.048 128.269 333.401 128.146C333.401 128.146 330.828 127.908 329.268 128.675C329.268 128.675 330.64 126.908 333.87 127.71L335.657 126.077C335.657 126.077 332.266 125.582 330.832 126.131C330.832 126.131 332.485 124.567 336.144 125.705L338.109 124.404C338.109 124.404 335.219 123.716 333.499 123.963C333.499 123.963 335.317 122.879 338.686 124.052L340.093 123.354C340.093 123.354 337.975 122.894 337.354 122.82C336.733 122.745 336.702 122.557 336.702 122.557C338.043 122.31 339.42 122.482 340.678 123.052C340.678 123.052 343.698 121.84 343.644 121.632Z" fill="#536DFE"/>
<path id="Vector_75" opacity="0.1" d="M240.515 109.915C240.515 109.915 244.424 91.556 232.344 91.4916C232.344 91.4916 230.338 90.6601 229.074 92.5608C229.074 92.5608 229.936 92.7637 229.351 94.5754C229.148 95.216 229.013 95.8804 228.949 96.5553C228.862 97.4754 229.049 98.4016 229.48 99.1935V99.1935C229.48 99.1935 230.611 104.787 237.968 108.291C237.968 108.291 239.416 110.113 239.854 110.133L239.139 106.772C239.139 106.772 236.932 107.45 235.368 106.277C235.368 106.277 239.045 106.876 239.049 106.277C239.049 106.153 238.603 104.515 238.603 104.515C238.603 104.515 234.765 105.673 232.397 103.787C232.397 103.787 236.691 105.153 238.437 103.891L237.633 101.456C237.633 101.456 233.613 102.906 230.861 100.872C230.861 100.872 235.395 102.129 237.423 100.941L236.329 98.6738C236.329 98.6738 232.397 100 230.106 98.2927C230.106 98.2927 235.467 99.1539 236.047 98.1739C236.047 98.1739 234.93 96.1593 234.399 95.7831C234.399 95.7831 231.558 96.6642 230.307 95.5406C230.307 95.5406 233.948 95.694 234.033 95.2683C234.033 95.2683 231.946 93.0756 230.356 92.5806C231.838 92.9545 233.207 93.7494 234.327 94.8872C234.311 93.8498 234.022 92.8402 233.496 91.9817C233.496 91.9817 235.123 92.5757 234.837 95.4465C234.837 95.4465 236.4 97.2285 236.449 97.6343C236.449 97.6343 237.097 94.8674 236.682 93.031C236.682 93.031 238.022 94.8328 236.758 98.2234L237.901 100.476C237.901 100.476 238.938 96.8622 238.674 95.199C238.674 95.199 239.787 97.2681 238.147 101.07L238.973 103.44C238.973 103.44 240.077 100.401 240.148 98.4907C240.148 98.4907 240.805 100.659 239.183 104.138L239.568 105.792C239.568 105.792 240.336 103.559 240.506 102.896C240.676 102.233 240.85 102.228 240.85 102.228C240.843 103.734 240.458 105.208 239.737 106.485C239.737 106.485 240.323 109.94 240.515 109.915Z" fill="#536DFE"/>
<path id="Vector_76" opacity="0.1" d="M203.337 116.171C203.337 116.171 189.703 104.871 184.829 117.111C184.829 117.111 183.341 118.819 184.409 120.863C184.409 120.863 184.918 120.066 186.196 121.388C186.649 121.855 187.15 122.26 187.688 122.596C188.418 123.046 189.26 123.22 190.087 123.091V123.091C190.087 123.091 195.162 124.175 201.005 118.082C201.005 118.082 203.092 117.339 203.288 116.904L200.21 116.305C200.21 116.305 199.889 118.814 198.303 119.938C198.303 119.938 200.264 116.443 199.755 116.191C199.652 116.136 198.115 115.943 198.115 115.943C198.115 115.943 197.543 120.309 195.042 121.957C195.042 121.957 197.887 118.141 197.534 115.864L195.198 115.725C195.198 115.725 194.8 120.373 192.013 122.373C192.013 122.373 194.858 118.27 194.693 115.735L192.379 115.943C192.379 115.943 191.91 120.462 189.582 122.106C189.582 122.106 192.437 116.998 191.852 116.027C191.852 116.027 189.739 116.359 189.216 116.745C189.216 116.745 188.81 119.982 187.38 120.804C187.38 120.804 188.966 117.166 188.644 116.913C188.644 116.913 185.995 118.156 184.954 119.571C185.855 118.216 187.059 117.145 188.448 116.463C187.584 116.065 186.633 115.955 185.714 116.146C185.714 116.146 186.848 114.731 189.091 116.171C189.091 116.171 191.191 115.295 191.548 115.404C191.548 115.404 189.515 113.637 187.831 113.33C187.831 113.33 189.859 112.686 192.16 115.31L194.479 115.047C194.479 115.047 191.901 112.572 190.422 112.157C190.422 112.157 192.58 111.855 195.068 115.032L197.356 115.146C197.356 115.146 195.287 112.81 193.728 111.969C193.728 111.969 195.779 112.167 198.012 115.201L199.536 115.473C199.536 115.473 197.994 113.8 197.512 113.364C197.03 112.929 197.097 112.746 197.097 112.746C198.339 113.355 199.405 114.336 200.175 115.577C200.175 115.577 203.279 116.374 203.337 116.171Z" fill="#536DFE"/>
<path id="Vector_77" opacity="0.1" d="M248.731 11.1829C248.731 11.1829 235.096 -0.122452 230.222 12.1234C230.222 12.1234 228.735 13.831 229.802 15.8753C229.802 15.8753 230.312 15.0784 231.589 16.4C232.044 16.8641 232.546 17.2677 233.086 17.6028C233.815 18.0533 234.658 18.2271 235.485 18.0978V18.0978C235.485 18.0978 240.56 19.1818 246.403 13.0836C246.403 13.0836 248.489 12.3461 248.681 11.9056L245.603 11.3165C245.603 11.3165 245.286 13.8261 243.696 14.9497C243.696 14.9497 245.661 11.4551 245.152 11.2027C245.049 11.1483 243.513 10.9552 243.513 10.9552C243.513 10.9552 242.923 15.3308 240.421 16.9692C240.421 16.9692 243.262 13.1529 242.914 10.876L240.578 10.7374C240.578 10.7374 240.175 15.3853 237.392 17.3801C237.392 17.3801 240.238 13.2767 240.073 10.7424L237.763 10.9503C237.763 10.9503 237.29 15.4744 234.962 17.1177C234.962 17.1177 237.821 12.0095 237.236 11.0394C237.236 11.0394 235.123 11.371 234.6 11.7571C234.6 11.7571 234.194 14.9943 232.764 15.8159C232.764 15.8159 234.35 12.1778 234.028 11.9204C234.028 11.9204 231.379 13.1678 230.338 14.5834C231.237 13.2265 232.442 12.1547 233.832 11.4749C232.967 11.074 232.014 10.9639 231.093 11.1582C231.093 11.1582 232.232 9.74251 234.475 11.1829C234.475 11.1829 236.575 10.3018 236.932 10.4157C236.932 10.4157 234.9 8.64861 233.215 8.33677C233.215 8.33677 235.239 7.69824 237.54 10.3167L239.858 10.0543C239.858 10.0543 237.285 7.57945 235.802 7.15871C235.802 7.15871 237.96 6.86172 240.452 10.0395L242.74 10.1484C242.74 10.1484 240.671 7.81209 239.108 6.97557C239.108 6.97557 241.163 7.17356 243.396 10.2078L244.915 10.48C244.915 10.48 243.37 8.8268 242.887 8.40111C242.405 7.97543 242.472 7.78734 242.472 7.78734C243.715 8.39645 244.781 9.37676 245.55 10.6186C245.55 10.6186 248.655 11.371 248.731 11.1829Z" fill="#536DFE"/>
<path id="Vector_78" opacity="0.1" d="M300.829 25.501C300.829 25.501 295.379 7.62728 285.099 14.6511C285.099 14.6511 283 15.146 282.834 17.4774C282.834 17.4774 283.661 17.1408 284.027 19.0217C284.163 19.6908 284.369 20.3402 284.639 20.9571C285.009 21.7873 285.61 22.4628 286.355 22.8826V22.8826C286.355 22.8826 289.982 26.9662 297.916 25.6149C297.916 25.6149 300.012 26.3177 300.396 26.0752L298.162 23.6449C298.162 23.6449 296.616 25.5109 294.731 25.4367C294.731 25.4367 298.14 23.7933 297.858 23.2637C297.8 23.1598 296.634 22.0362 296.634 22.0362C296.634 22.0362 293.927 25.2684 291.023 25.0555C291.023 25.0555 295.316 23.6993 296.192 21.5907L294.342 20.0117C294.342 20.0117 291.635 23.5855 288.316 23.4766C288.316 23.4766 292.783 21.8877 293.914 19.69L291.903 18.408C291.903 18.408 289.223 21.8382 286.444 21.7293C286.444 21.7293 291.412 19.3187 291.425 18.1506C291.425 18.1506 289.518 17.0963 288.888 17.0864C288.888 17.0864 286.895 19.4969 285.314 19.2791C285.314 19.2791 288.477 17.2745 288.343 16.8636C288.343 16.8636 285.528 16.2251 283.942 16.7399C285.377 16.1865 286.917 16.0585 288.41 16.3686C287.9 15.497 287.172 14.8089 286.315 14.3887C286.315 14.3887 287.976 13.9383 289.089 16.532C289.089 16.532 291.269 17.1309 291.501 17.4427C291.501 17.4427 290.733 14.7154 289.504 13.3988C289.504 13.3988 291.501 14.1462 292.046 17.7645L294.092 19.0019C294.092 19.0019 293.248 15.3341 292.229 14.0521C292.229 14.0521 294.164 15.1609 294.584 19.3435L296.415 20.873C296.415 20.873 295.906 17.6457 295.048 15.9727C295.048 15.9727 296.639 17.4279 296.925 21.3333L298.037 22.5113C298.037 22.5113 297.626 20.1651 297.456 19.5019C297.286 18.8386 297.425 18.794 297.425 18.794C298.135 20.0781 298.511 21.5548 298.51 23.0608C298.51 23.0608 300.673 25.6297 300.829 25.501Z" fill="#536DFE"/>
<path id="Vector_79" opacity="0.1" d="M265.26 26.3829C265.26 26.3829 248.328 24.2941 249.727 37.6041C249.727 37.6041 249.222 39.9107 251.067 41.069C251.067 41.069 251.143 40.079 252.854 40.5245C253.458 40.6686 254.076 40.7367 254.694 40.7274C255.53 40.7107 256.337 40.3927 256.995 39.8216V39.8216C256.995 39.8216 261.869 37.906 264.143 29.3676C264.143 29.3676 265.599 27.5609 265.568 27.0709L262.642 28.2688C262.642 28.2688 263.535 30.61 262.642 32.4711C262.642 32.4711 262.736 28.3578 262.195 28.4222C262.083 28.4222 260.672 29.135 260.672 29.135C260.672 29.135 262.173 33.2186 260.77 36.0647C260.77 36.0647 261.476 31.1743 260.131 29.4122L258.054 30.6001C258.054 30.6001 259.841 34.8322 258.344 38.1189C258.344 38.1189 258.925 32.981 257.616 30.8971L255.717 32.382C255.717 32.382 257.379 36.5448 256.124 39.2722C256.124 39.2722 256.253 33.2631 255.302 32.7533C255.302 32.7533 253.631 34.2382 253.359 34.852C253.359 34.852 254.489 37.8714 253.636 39.3811C253.636 39.3811 253.336 35.3569 252.943 35.3173C252.943 35.3173 251.228 37.8763 250.977 39.683C251.132 38.008 251.681 36.4072 252.568 35.0401C251.641 35.182 250.771 35.6207 250.066 36.3023C250.066 36.3023 250.397 34.4461 252.988 34.4263C252.988 34.4263 254.395 32.4909 254.775 32.387C254.775 32.387 252.215 32.0059 250.62 32.684C250.62 32.684 252.072 30.9911 255.262 31.9762L257.142 30.4467C257.142 30.4467 253.743 29.6844 252.304 30.1794C252.304 30.1794 254.029 28.6944 257.629 30.0556L259.653 28.8627C259.653 28.8627 256.798 28.0114 255.07 28.1648C255.07 28.1648 256.933 27.1748 260.243 28.5459L261.681 27.9272C261.681 27.9272 259.586 27.3481 258.97 27.2392C258.353 27.1303 258.331 26.9422 258.331 26.9422C259.681 26.7705 261.048 27.0173 262.28 27.655C262.28 27.655 265.291 26.5908 265.26 26.3829Z" fill="#536DFE"/>
<path id="Vector_80" opacity="0.1" d="M413.398 171.991C413.398 171.991 396.476 169.902 397.874 183.197C397.874 183.197 397.369 185.503 399.214 186.662C399.214 186.662 399.29 185.672 401.001 186.112C401.605 186.261 402.223 186.329 402.842 186.315C403.677 186.301 404.486 185.983 405.142 185.409V185.409C405.142 185.409 410.016 183.494 412.268 174.96C412.268 174.96 413.724 173.149 413.693 172.664L410.767 173.857C410.767 173.857 411.66 176.203 410.767 178.064C410.767 178.064 410.861 173.946 410.32 174.015C410.208 174.015 408.797 174.723 408.797 174.723C408.797 174.723 410.298 178.806 408.895 181.653C408.895 181.653 409.601 176.767 408.256 175L406.179 176.193C406.179 176.193 407.966 180.425 406.474 183.712C406.474 183.712 407.05 178.574 405.741 176.485L403.842 177.97C403.842 177.97 405.504 182.133 404.249 184.855C404.249 184.855 404.378 178.846 403.427 178.341C403.427 178.341 401.761 179.826 401.484 180.44C401.484 180.44 402.618 183.459 401.761 184.969C401.761 184.969 401.461 180.945 401.068 180.905C401.068 180.905 399.353 183.464 399.102 185.271C399.257 183.596 399.806 181.995 400.693 180.628C399.765 180.767 398.895 181.206 398.191 181.89C398.191 181.89 398.522 180.029 401.113 180.009C401.113 180.009 402.524 178.074 402.9 177.975C402.9 177.975 400.34 177.589 398.745 178.267C398.745 178.267 400.197 176.579 403.391 177.564L405.267 176.034C405.267 176.034 401.908 175.332 400.447 175.817C400.447 175.817 402.172 174.332 405.772 175.688L407.796 174.5C407.796 174.5 404.941 173.649 403.212 173.802C403.212 173.802 405.075 172.812 408.386 174.183L409.824 173.56C409.824 173.56 407.729 172.98 407.112 172.877C406.496 172.773 406.474 172.58 406.474 172.58C407.824 172.405 409.191 172.65 410.423 173.287C410.423 173.287 413.443 172.203 413.398 171.991Z" fill="#536DFE"/>
<path id="Vector_81" opacity="0.1" d="M439.269 189.504C439.269 189.504 422.346 187.42 423.744 200.71C423.744 200.71 423.244 203.017 425.085 204.175C425.085 204.175 425.161 203.185 426.872 203.63C427.475 203.776 428.091 203.842 428.708 203.828C429.539 203.809 430.343 203.493 430.999 202.927V202.927C430.999 202.927 435.869 201.012 438.12 192.473C438.12 192.473 439.581 190.667 439.546 190.177L436.619 191.37C436.619 191.37 437.513 193.716 436.619 195.577C436.619 195.577 436.713 191.464 436.173 191.528C436.061 191.528 434.649 192.236 434.649 192.236C434.649 192.236 436.15 196.319 434.748 199.166C434.748 199.166 435.453 194.28 434.109 192.518L432.031 193.706C432.031 193.706 433.818 197.938 432.326 201.225C432.326 201.225 432.903 196.087 431.594 194.003L429.695 195.488C429.695 195.488 431.357 199.651 430.106 202.378C430.106 202.378 430.231 196.364 429.28 195.859C429.28 195.859 427.613 197.344 427.336 197.958C427.336 197.958 428.471 200.977 427.613 202.487C427.613 202.487 427.314 198.463 426.921 198.423C426.921 198.423 425.205 200.982 424.96 202.789C425.114 201.115 425.661 199.514 426.546 198.146C425.619 198.288 424.749 198.727 424.044 199.408C424.044 199.408 424.379 197.547 426.97 197.532C426.97 197.532 428.377 195.597 428.757 195.493C428.757 195.493 426.197 195.112 424.602 195.79C424.602 195.79 426.054 194.097 429.248 195.082L431.125 193.552C431.125 193.552 427.765 192.85 426.304 193.335C426.304 193.335 428.029 191.85 431.629 193.211L433.653 192.018C433.653 192.018 430.798 191.167 429.07 191.32C429.07 191.32 430.932 190.33 434.243 191.701L435.681 191.083C435.681 191.083 433.586 190.503 432.974 190.394C432.362 190.286 432.331 190.098 432.331 190.098C433.681 189.926 435.048 190.173 436.28 190.81C436.28 190.81 439.313 189.716 439.269 189.504Z" fill="#536DFE"/>
<path id="Vector_82" opacity="0.1" d="M381.832 41.9932C381.832 41.9932 368.197 30.6928 363.323 42.9337C363.323 42.9337 361.836 44.6414 362.903 46.6856C362.903 46.6856 363.413 45.8887 364.69 47.2103C365.143 47.6768 365.644 48.0822 366.182 48.4181C366.912 48.8679 367.754 49.0416 368.581 48.913V48.913C368.581 48.913 373.656 49.997 379.504 43.9038C379.504 43.9038 381.586 43.1614 381.782 42.7258L378.713 42.112C378.713 42.112 378.392 44.6216 376.806 45.7452C376.806 45.7452 378.767 42.2506 378.258 41.9982C378.155 41.9437 376.623 41.7507 376.623 41.7507C376.623 41.7507 376.046 46.1164 373.545 47.7647C373.545 47.7647 376.39 43.9484 376.037 41.6715L373.701 41.5329C373.701 41.5329 373.303 46.1807 370.516 48.1805C370.516 48.1805 373.366 44.0771 373.196 41.5428L370.882 41.7507C370.882 41.7507 370.435 46.2698 368.085 47.9132C368.085 47.9132 370.945 42.805 370.355 41.8348C370.355 41.8348 368.242 42.1665 367.719 42.5525C367.719 42.5525 367.317 45.7897 365.887 46.6114C365.887 46.6114 367.469 42.9733 367.147 42.7208C367.147 42.7208 364.498 43.9632 363.457 45.3789C364.358 44.0234 365.562 42.9519 366.951 42.2704C366.087 41.8724 365.136 41.7624 364.217 41.9536C364.217 41.9536 365.356 40.538 367.599 41.9784C367.599 41.9784 369.694 41.1022 370.051 41.2111C370.051 41.2111 368.018 39.4441 366.334 39.1372C366.334 39.1372 368.362 38.4937 370.663 41.1171L372.982 40.8548C372.982 40.8548 370.408 38.3798 368.925 37.9641C368.925 37.9641 371.083 37.6621 373.571 40.8399L375.863 40.9538C375.863 40.9538 373.79 38.6174 372.231 37.776C372.231 37.776 374.286 37.974 376.515 41.0082L378.039 41.2804C378.039 41.2804 376.497 39.6074 376.015 39.1718C375.533 38.7362 375.604 38.5927 375.604 38.5927C376.845 39.2035 377.909 40.1835 378.678 41.424C378.678 41.424 381.773 42.1961 381.832 41.9932Z" fill="#536DFE"/>
<path id="Vector_83" opacity="0.1" d="M392.366 123.578C392.366 123.578 387.666 105.446 377.096 111.955C377.096 111.955 374.979 112.317 374.715 114.663C374.715 114.663 375.555 114.371 375.845 116.267C375.953 116.948 376.133 117.612 376.381 118.247C376.713 119.1 377.287 119.809 378.016 120.266V120.266C378.016 120.266 381.474 124.523 389.453 123.573C389.453 123.573 391.517 124.374 391.91 124.157L389.797 121.612C389.797 121.612 388.175 123.404 386.299 123.236C386.299 123.236 389.766 121.751 389.498 121.221C389.444 121.112 388.327 119.93 388.327 119.93C388.327 119.93 385.495 123.028 382.6 122.667C382.6 122.667 386.947 121.528 387.903 119.479L386.116 117.806C386.116 117.806 383.266 121.241 379.955 120.974C379.955 120.974 384.458 119.603 385.7 117.469L383.744 116.088C383.744 116.088 380.907 119.38 378.155 119.133C378.155 119.133 383.217 116.97 383.279 115.806C383.279 115.806 381.412 114.658 380.782 114.618C380.782 114.618 378.696 116.925 377.11 116.628C377.11 116.628 380.353 114.782 380.237 114.366C380.237 114.366 377.449 113.589 375.845 114.019C377.298 113.542 378.838 113.493 380.313 113.876C379.84 112.98 379.141 112.258 378.302 111.797C378.302 111.797 379.982 111.426 380.983 114.074C380.983 114.074 383.132 114.777 383.355 115.103C383.355 115.103 382.698 112.337 381.523 110.965C381.523 110.965 383.489 111.807 383.887 115.45L385.879 116.791C385.879 116.791 385.182 113.079 384.217 111.772C384.217 111.772 386.102 112.975 386.357 117.172L388.144 118.791C388.144 118.791 387.764 115.544 386.978 113.841C386.978 113.841 388.51 115.376 388.635 119.286L389.699 120.523C389.699 120.523 389.386 118.157 389.252 117.484C389.118 116.811 389.252 116.717 389.252 116.717C389.913 118.034 390.23 119.528 390.168 121.033C390.168 121.033 392.205 123.696 392.366 123.578Z" fill="#536DFE"/>
<path id="Vector_84" opacity="0.1" d="M287.641 164.432C287.641 164.432 278.515 148.504 270.04 158.037C270.04 158.037 268.101 159.027 268.441 161.378C268.441 161.378 269.178 160.834 269.937 162.566C270.21 163.18 270.549 163.755 270.947 164.279C271.479 164.993 272.209 165.494 273.024 165.704V165.704C273.024 165.704 277.424 168.714 284.84 165.308C284.84 165.308 287.025 165.437 287.347 165.105L284.666 163.323C284.666 163.323 283.563 165.551 281.718 165.971C281.718 165.971 284.675 163.497 284.277 163.041C284.202 162.952 282.826 162.17 282.826 162.17C282.826 162.17 280.891 166.021 278.023 166.58C278.023 166.58 281.905 164.13 282.307 161.863L280.167 160.819C280.167 160.819 278.305 165.001 275.061 165.768C275.061 165.768 279.037 163.051 279.685 160.616L277.451 159.903C277.451 159.903 275.566 163.947 272.863 164.566C272.863 164.566 277.17 160.913 276.933 159.774C276.933 159.774 274.851 159.255 274.253 159.413C274.253 159.413 272.836 162.279 271.237 162.487C271.237 162.487 273.882 159.705 273.663 159.339C273.663 159.339 270.79 159.462 269.361 160.378C270.636 159.463 272.105 158.934 273.623 158.844C272.943 158.131 272.091 157.655 271.17 157.473C271.17 157.473 272.685 156.597 274.297 158.824C274.297 158.824 276.531 158.824 276.839 159.071C276.839 159.071 275.499 156.597 274.029 155.671C274.029 155.671 276.129 155.869 277.433 159.24L279.689 159.903C279.689 159.903 278.077 156.562 276.821 155.607C276.821 155.607 278.934 156.171 280.243 160.126L282.352 161.116C282.352 161.116 281.164 158.121 279.971 156.72C279.971 156.72 281.829 157.71 282.942 161.428L284.282 162.284C284.282 162.284 283.388 160.111 283.071 159.512C282.754 158.913 282.879 158.774 282.879 158.774C283.846 159.832 284.528 161.167 284.849 162.63C284.849 162.63 287.521 164.6 287.641 164.432Z" fill="#536DFE"/>
<path id="Vector_85" d="M347.625 83.0473C347.625 83.0473 338.945 66.8169 330.202 76.0533C330.202 76.0533 328.236 76.9937 328.513 79.3399C328.513 79.3399 329.259 78.8152 329.974 80.5724C330.23 81.1971 330.552 81.7854 330.935 82.3247C331.448 83.0546 332.164 83.5766 332.972 83.8096V83.8096C332.972 83.8096 337.283 86.9676 344.792 83.8096C344.792 83.8096 346.973 84.0125 347.303 83.6908L344.681 81.8198C344.681 81.8198 343.519 84.0026 341.661 84.364C341.661 84.364 344.685 81.9732 344.305 81.5228C344.225 81.4287 342.876 80.5972 342.876 80.5972C342.876 80.5972 340.834 84.3838 337.962 84.8441C337.962 84.8441 341.911 82.5276 342.371 80.2804L340.263 79.1815C340.263 79.1815 338.283 83.3047 335.018 83.963C335.018 83.963 339.07 81.3842 339.785 78.9736L337.578 78.1817C337.578 78.1817 335.576 82.1415 332.86 82.686C332.86 82.686 337.265 79.1815 337.059 78.0381C337.059 78.0381 334.995 77.4442 334.379 77.5827C334.379 77.5827 332.882 80.3992 331.279 80.5526C331.279 80.5526 333.999 77.8698 333.794 77.4936C333.794 77.4936 330.917 77.5184 329.465 78.3846C330.765 77.5154 332.248 77.0376 333.767 76.9987C333.107 76.2629 332.267 75.757 331.35 75.5434C331.35 75.5434 332.891 74.7168 334.477 76.9987C334.477 76.9987 336.711 77.0828 337.01 77.3353C337.01 77.3353 335.746 74.8604 334.299 73.8407C334.299 73.8407 336.389 74.108 337.6 77.5233L339.834 78.2658C339.834 78.2658 338.319 74.8703 337.086 73.8704C337.086 73.8704 339.186 74.5089 340.383 78.5034L342.46 79.5775C342.46 79.5775 341.357 76.5433 340.227 75.1227C340.227 75.1227 342.054 76.177 343.068 79.929L344.377 80.8298C344.377 80.8298 343.537 78.6272 343.242 78.0183C342.947 77.4095 343.072 77.2759 343.072 77.2759C344.009 78.3664 344.654 79.7235 344.935 81.1961C344.935 81.1961 347.495 83.2107 347.625 83.0473Z" fill="#536DFE"/>
<path id="Vector_86" d="M292.707 117.178C292.707 117.178 293.154 98.3194 281.329 100.977C281.329 100.977 279.211 100.616 278.318 102.764C278.318 102.764 279.211 102.764 278.961 104.67C278.879 105.349 278.87 106.037 278.934 106.719C279.015 107.644 279.368 108.514 279.94 109.194C279.94 109.194 282.07 114.411 289.938 116.183C289.938 116.183 291.684 117.643 292.122 117.564L290.782 114.436C290.782 114.436 288.749 115.594 287.002 114.807C287.002 114.807 290.71 114.565 290.608 113.961C290.608 113.837 289.839 112.332 289.839 112.332C289.839 112.332 286.292 114.337 283.634 113.02C283.634 113.02 288.101 113.392 289.562 111.763L288.316 109.57C288.316 109.57 284.662 111.887 281.579 110.521C281.579 110.521 286.247 110.729 288.017 109.11L286.529 107.13C286.529 107.13 282.924 109.318 280.368 108.16C280.368 108.16 285.783 107.798 286.176 106.704C286.176 106.704 284.711 104.987 284.121 104.724C284.121 104.724 281.503 106.209 280.074 105.408C280.074 105.408 283.647 104.744 283.67 104.304C283.67 104.304 281.226 102.626 279.578 102.502C281.098 102.532 282.584 103.003 283.889 103.868C283.685 102.856 283.219 101.933 282.548 101.21C282.548 101.21 284.251 101.423 284.483 104.279C284.483 104.279 286.346 105.675 286.466 106.061C286.466 106.061 286.596 103.205 285.85 101.502C285.85 101.502 287.494 102.962 286.877 106.566L288.41 108.516C288.41 108.516 288.758 104.744 288.2 103.175C288.2 103.175 289.665 104.952 288.763 109.041L290 111.174C290 111.174 290.527 107.952 290.246 106.056C290.246 106.056 291.282 108.036 290.335 111.803L291.014 113.337C291.014 113.337 291.358 110.976 291.403 110.288C291.448 109.6 291.617 109.555 291.617 109.555C291.886 111.032 291.779 112.562 291.309 113.976C291.309 113.976 292.511 117.242 292.707 117.178Z" fill="#536DFE"/>
<path id="Vector_87" opacity="0.1" d="M312.256 356.807C318.901 356.807 324.287 355.799 324.287 354.555C324.287 353.311 318.901 352.303 312.256 352.303C305.612 352.303 300.226 353.311 300.226 354.555C300.226 355.799 305.612 356.807 312.256 356.807Z" fill="#536DFE"/>
<path id="Vector_88" opacity="0.1" d="M268.4 391C275.045 391 280.431 389.992 280.431 388.748C280.431 387.504 275.045 386.496 268.4 386.496C261.756 386.496 256.37 387.504 256.37 388.748C256.37 389.992 261.756 391 268.4 391Z" fill="#536DFE"/>
<path id="Vector_89" opacity="0.1" d="M41.6093 373.483C48.2536 373.483 53.6399 372.475 53.6399 371.231C53.6399 369.987 48.2536 368.979 41.6093 368.979C34.9649 368.979 29.5786 369.987 29.5786 371.231C29.5786 372.475 34.9649 373.483 41.6093 373.483Z" fill="#536DFE"/>
<path id="Vector_90" opacity="0.1" d="M359.651 388.748C366.295 388.748 371.682 387.74 371.682 386.496C371.682 385.252 366.295 384.244 359.651 384.244C353.007 384.244 347.62 385.252 347.62 386.496C347.62 387.74 353.007 388.748 359.651 388.748Z" fill="#536DFE"/>
<path id="Vector_91" d="M372.177 361.286C382.098 361.286 390.141 359.779 390.141 357.921C390.141 356.062 382.098 354.555 372.177 354.555C362.257 354.555 354.214 356.062 354.214 357.921C354.214 359.779 362.257 361.286 372.177 361.286Z" fill="#536DFE"/>
<path id="Vector_92" d="M379.625 352.411C380.445 351.673 381.042 350.675 381.336 349.55C381.559 348.412 381.121 347.051 380.143 346.635C379.044 346.17 377.869 347.011 376.975 347.862C376.082 348.714 375.068 349.689 373.902 349.511C374.5 348.908 374.948 348.144 375.202 347.294C375.455 346.443 375.506 345.534 375.349 344.655C375.299 344.291 375.16 343.948 374.947 343.665C374.335 342.942 373.232 343.254 372.499 343.823C370.176 345.635 369.528 349.129 369.515 352.278C369.283 351.144 369.479 349.961 369.475 348.813C369.47 347.664 369.18 346.338 368.291 345.734C367.745 345.397 367.129 345.226 366.504 345.239C365.458 345.199 364.292 345.313 363.582 346.16C362.689 347.209 362.925 348.976 363.694 350.119C364.462 351.263 365.637 352 366.718 352.802C367.584 353.375 368.322 354.154 368.88 355.084C368.944 355.214 368.996 355.349 369.037 355.49H375.586C377.052 354.672 378.411 353.636 379.625 352.411V352.411Z" fill="#536DFE"/>
<path id="Vector_93" d="M33.5322 360.762C33.5322 360.762 40.3897 360.529 42.467 358.896C44.5443 357.262 53.0234 355.317 53.5372 357.936C54.0509 360.554 63.8479 370.949 56.1014 371.018C48.355 371.087 38.1024 369.682 36.0384 368.286C33.9745 366.89 33.5322 360.762 33.5322 360.762Z" fill="#A8A8A8"/>
<path id="Vector_94" opacity="0.2" d="M56.231 370.107C48.4846 370.176 38.2319 368.771 36.168 367.375C34.5955 366.316 33.97 362.509 33.7601 360.752H33.5322C33.5322 360.752 33.979 366.885 36.0295 368.276C38.08 369.667 48.3461 371.077 56.0925 371.008C58.3262 371.008 59.0991 370.107 59.0588 368.8C58.7461 369.597 57.8929 370.092 56.231 370.107Z" fill="black"/>
</g>
<defs>
<linearGradient id="paint0_linear" x1="99.6182" y1="214.534" x2="239.059" y2="214.534" gradientUnits="userSpaceOnUse">
<stop stop-color="#808080" stop-opacity="0.25"/>
<stop offset="0.54" stop-color="#808080" stop-opacity="0.12"/>
<stop offset="1" stop-color="#808080" stop-opacity="0.1"/>
</linearGradient>
<clipPath id="clip0">
<rect width="451" height="391" fill="white"/>
</clipPath>
</defs>
</svg>
