<?xml version="1.0" standalone="no"?>
<!DOCTYPE svg PUBLIC "-//W3C//DTD SVG 20010904//EN"
 "http://www.w3.org/TR/2001/REC-SVG-20010904/DTD/svg10.dtd">
<svg version="1.0" xmlns="http://www.w3.org/2000/svg"
 width="352.000000pt" height="352.000000pt" viewBox="0 0 352.000000 352.000000"
 preserveAspectRatio="xMidYMid meet">
<metadata>
Created by potrace 1.14, written by Peter Selinger 2001-2017
</metadata>
<g transform="translate(0.000000,352.000000) scale(0.100000,-0.100000)"
fill="#000000" stroke="none">
<path d="M1217 3454 c-1 -1 -40 -4 -87 -8 -91 -6 -251 -42 -338 -76 -381 -147
-656 -460 -753 -854 -31 -126 -34 -160 -33 -336 1 -144 4 -179 28 -272 61
-244 165 -427 341 -603 82 -82 229 -195 253 -195 6 0 12 -3 14 -8 3 -7 153
-78 213 -100 45 -17 182 -49 245 -58 30 -4 270 -8 533 -8 l477 -1 0 40 0 40
-437 0 c-409 0 -536 4 -623 20 -483 88 -874 485 -954 971 -15 87 -15 313 -1
394 74 417 335 743 714 889 103 40 223 68 326 77 44 4 587 7 1207 7 872 1
1128 3 1132 13 2 6 3 20 1 30 -2 11 -4 24 -4 29 -1 7 -383 10 -1127 10 -619 0
-1126 -1 -1127 -1z"/>
<path d="M1092 3244 c-388 -57 -712 -327 -838 -697 -21 -62 -29 -98 -49 -217
-8 -49 -9 -216 -1 -270 16 -109 51 -223 98 -320 71 -147 129 -222 282 -366 24
-23 150 -106 195 -128 81 -42 222 -86 315 -100 67 -11 213 -15 554 -15 l462
-1 0 40 0 40 -102 0 c-57 0 -281 2 -498 3 -388 4 -397 4 -491 29 -393 106
-670 416 -734 823 -10 64 -7 235 5 295 6 30 13 66 16 80 11 57 39 131 86 221
142 275 399 455 719 503 66 10 346 13 1216 13 622 0 1135 3 1140 6 8 5 10 32
4 68 -1 4 -517 6 -1148 6 -846 -1 -1170 -4 -1231 -13z"/>
<path d="M1168 3045 c-2 -2 -30 -6 -63 -10 -69 -7 -183 -44 -258 -81 -515
-260 -611 -971 -185 -1369 111 -105 227 -171 380 -216 70 -22 93 -23 571 -27
l497 -4 0 41 0 41 -447 1 c-247 0 -455 2 -463 3 -8 2 -38 6 -65 9 -113 14
-255 77 -364 162 -176 135 -289 354 -295 571 -5 159 19 266 93 408 84 163 234
290 414 351 125 42 138 43 1315 43 620 1 1139 1 1154 2 27 0 28 3 19 72 -1 6
-2296 9 -2303 3z"/>
<path d="M1106 2834 c-255 -55 -446 -250 -492 -504 -12 -67 -11 -192 2 -260
51 -268 281 -490 546 -524 42 -6 309 -8 801 -6 l147 0 0 40 0 40 -463 0 c-380
0 -474 3 -522 15 -267 68 -446 303 -439 576 6 254 140 444 374 530 l65 24
1175 5 1174 5 1 35 0 35 -1150 2 c-983 1 -1160 -1 -1219 -13z"/>
<path d="M1439 2520 c-23 -5 -26 -14 -20 -66 1 -8 129 -11 454 -11 248 0 475
-3 502 -7 106 -15 122 -18 192 -37 279 -76 518 -253 681 -503 71 -110 141
-280 161 -394 6 -32 13 -73 17 -92 10 -59 7 -261 -5 -330 -90 -500 -463 -880
-960 -977 -77 -15 -204 -17 -1246 -17 l-1160 -1 -3 -28 -3 -27 1233 0 1234 0
89 26 c279 80 523 258 690 504 252 371 289 826 100 1236 -106 231 -315 449
-555 581 -127 70 -316 126 -464 139 -94 8 -900 11 -937 4z"/>
<path d="M1416 2314 c-5 -14 0 -53 9 -62 3 -3 218 -6 478 -7 407 -2 483 -4
551 -19 410 -90 714 -414 774 -826 14 -97 6 -272 -17 -365 -41 -163 -133 -331
-247 -451 -48 -50 -154 -135 -204 -163 -117 -66 -211 -101 -335 -124 -66 -13
-213 -15 -865 -16 -432 0 -948 0 -1148 -1 l-363 0 3 -37 3 -38 1140 -2 c941
-2 1155 1 1225 12 507 84 883 508 895 1010 8 344 -121 632 -385 860 -99 85
-274 173 -415 208 -112 29 -139 30 -617 32 -382 1 -478 -1 -482 -11z"/>
<path d="M1417 2116 c-6 -14 -2 -55 6 -62 2 -2 208 -4 458 -4 484 -1 516 -4
651 -53 191 -69 366 -236 446 -427 44 -102 60 -183 60 -293 0 -129 -22 -225
-76 -335 -115 -232 -327 -389 -572 -425 -64 -10 -357 -13 -1207 -12 -618 0
-1123 -2 -1124 -5 -7 -31 -4 -70 5 -73 6 -2 533 -3 1171 -2 l1160 2 80 22
c384 106 643 437 643 823 1 416 -292 762 -713 843 -52 11 -185 14 -526 15
-394 0 -457 -2 -462 -14z"/>
<path d="M1468 1932 l-57 -3 4 -35 c1 -19 5 -37 7 -39 2 -3 212 -5 467 -5 462
-1 462 -1 539 -25 238 -76 402 -299 402 -545 0 -155 -59 -298 -165 -406 -67
-67 -125 -105 -224 -143 l-66 -26 -820 -2 c-451 -2 -974 -3 -1162 -3 l-343 0
0 -40 0 -40 1138 1 c956 1 1148 3 1207 15 230 49 423 231 493 467 17 55 20 91
18 190 -2 106 -7 132 -32 202 -88 240 -308 414 -544 432 -75 5 -777 9 -862 5z"/>
</g>
</svg>
